<svg aria-hidden="true" style="position: absolute; width: 0; height: 0; overflow: hidden;" version="1.1" xmlns="http://www.w3.org/2000/svg" xmlns:xlink="http://www.w3.org/1999/xlink">
<defs>
<symbol id="icon-telegram" viewBox="0 0 34 32">
<path d="M32.524 1.034c0.043-0.022 0.093-0.035 0.146-0.035 0.178 0 0.322 0.144 0.322 0.322 0 0.026-0.003 0.051-0.009 0.075l0-0.002-5.822 23.806c-0.037 0.141-0.163 0.244-0.314 0.244-0.034 0-0.066-0.005-0.096-0.015l0.002 0.001-11.648-3.52c-0.103-0.031-0.183-0.11-0.215-0.21l-0.001-0.002c-0.008-0.027-0.013-0.059-0.013-0.091 0-0.080 0.029-0.153 0.078-0.209l-0 0 11.594-13.606-15.094 12.794c-0.057 0.052-0.132 0.084-0.216 0.084-0.035 0-0.069-0.006-0.101-0.016l0.002 0.001-9.924-3.13c-0.132-0.042-0.225-0.163-0.225-0.306 0-0.125 0.071-0.233 0.175-0.286l0.002-0.001 31.356-15.9zM15.296 24.406l3.22 0.982c0.094 0.030 0.172 0.1 0.208 0.196 0.012 0.032 0.019 0.069 0.019 0.108 0 0.064-0.019 0.123-0.052 0.173l0.001-0.001-3.218 5.044c-0.059 0.090-0.16 0.148-0.274 0.148-0.031 0-0.062-0.004-0.090-0.013l0.002 0.001c-0.136-0.039-0.234-0.162-0.234-0.308v0-6.024c0-0.1 0.048-0.198 0.132-0.258 0.052-0.039 0.118-0.063 0.189-0.063 0.034 0 0.068 0.006 0.099 0.016l-0.002-0.001z"></path>
</symbol>
<symbol id="icon-tv" viewBox="0 0 32 32">
<path d="M29.326 8h-11.352l4.48-5.374c0.070 0.012 0.132 0.040 0.206 0.040 0.735-0.001 1.33-0.597 1.33-1.332s-0.596-1.332-1.332-1.332c-0.735 0-1.331 0.595-1.332 1.33v0c0 0.16 0.040 0.308 0.092 0.452l-5.178 6.216h-0.486l-5.18-6.216c0.053-0.134 0.086-0.288 0.090-0.45l0-0.002c0-0.001 0-0.001 0-0.002 0-0.738-0.598-1.336-1.336-1.336s-1.336 0.598-1.336 1.336c0 0.738 0.598 1.336 1.336 1.336 0.001 0 0.001 0 0.002 0h-0c0.074 0 0.14-0.028 0.208-0.040l4.48 5.374h-11.356c-1.468 0-2.662 1.196-2.662 2.668v18.674c0 1.474 1.194 2.668 2.664 2.668h26.662c1.472 0 2.666-1.194 2.666-2.668v-18.674c0-1.472-1.194-2.668-2.666-2.668zM23.994 26.674c0 1.472-1.194 2.668-2.668 2.668h-15.994c-1.474 0-2.668-1.195-2.668-2.668v0-13.34c0-1.472 1.196-2.666 2.668-2.666h15.994c1.474 0 2.668 1.194 2.668 2.668v13.34zM27.922 14.754c-1.026-0.034-1.844-0.874-1.844-1.905s0.819-1.871 1.841-1.905l0.003-0c1.052 0 1.905 0.853 1.905 1.905s-0.853 1.905-1.905 1.905v0z"></path>
</symbol>
<symbol id="icon-chemical" viewBox="0 0 26 32">
<path d="M18.31 11.396l6.13 16.58c0.36 0.878 0.254 1.904-0.298 2.72-0.55 0.814-1.468 1.3-2.454 1.3h-17.444c-0.002 0-0.003 0-0.005 0-1.015 0-1.911-0.511-2.444-1.29l-0.007-0.010c-0.315-0.46-0.504-1.028-0.504-1.64 0-0.401 0.081-0.783 0.227-1.131l-0.007 0.019 6.116-16.546v-4.88c-1.16-0.402-1.99-1.496-1.99-2.78v-0.794c0.002-1.624 1.33-2.944 2.962-2.944h8.748c1.632 0 2.96 1.318 2.96 2.94v0.796c0 1.284-0.834 2.378-1.99 2.778v4.88zM9.224 23.216c-0.019-0.001-0.041-0.002-0.063-0.002-0.554 0-1.004 0.45-1.004 1.004s0.45 1.004 1.004 1.004c0.022 0 0.044-0.001 0.066-0.002l-0.003 0c0.019 0.001 0.041 0.002 0.063 0.002 0.554 0 1.004-0.45 1.004-1.004s-0.45-1.004-1.004-1.004c-0.022 0-0.044 0.001-0.066 0.002l0.003-0zM16.46 26.82c-0.005-0.956-0.781-1.73-1.738-1.73-0.001 0-0.003 0-0.004 0h0c-0.002 0-0.004 0-0.006 0-0.957 0-1.733 0.774-1.736 1.73v0c0 0.958 0.778 1.734 1.742 1.734 0.001 0 0.001 0 0.002 0 0.959 0 1.737-0.776 1.74-1.734v-0zM14.492 20.046c-0.001 0-0.003 0-0.004 0-0.69 0-1.251 0.558-1.254 1.248v0c0 0.688 0.564 1.248 1.26 1.248 0.69 0 1.252-0.56 1.252-1.248-0.003-0.69-0.564-1.248-1.254-1.248 0 0 0 0 0 0v0zM9.58 5.706v6.036l-2.284 6.174h0.090s9.34-0.152 10.614-1.472l0.038-0.034c0.011-0.009 0.021-0.018 0.030-0.026l-0 0-1.716-4.644v-7.008h0.98c0.003 0 0.006 0 0.010 0 0.55 0 0.997-0.444 1-0.994v-0.798c-0.003-0.55-0.45-0.994-1-0.994-0.001 0-0.001 0-0.002 0h-8.75c0 0 0 0 0 0-0.551 0-0.998 0.445-1 0.996v0.796c0.003 0.55 0.45 0.994 1 0.994 0 0 0 0 0 0h0.98l0.008 0.974zM13.648 14.132c0 0.753-0.61 1.363-1.363 1.363s-1.363-0.61-1.363-1.363v0c0-0.753 0.61-1.363 1.363-1.363s1.363 0.61 1.363 1.363v0z"></path>
</symbol>
<symbol id="icon-cup" viewBox="0 0 30 32">
<path d="M13.107 12.489l0.072 0.004c0 0 0 0 0.001 0 0.468 0 0.847-0.379 0.847-0.847 0-0.106-0.020-0.208-0.055-0.301l0.002 0.006c-0.009-0.024-0.815-2.372 0.232-4.329 1.111-1.864 1.474-3.364 1.077-4.461-0.203-0.596-0.66-1.059-1.238-1.266l-0.014-0.004c-0.063-0.017-0.136-0.027-0.211-0.027-0.471 0-0.853 0.382-0.853 0.853 0 0.361 0.225 0.67 0.542 0.794l0.006 0.002c0.004 0 0.119 0.058 0.183 0.237 0.096 0.264 0.2 1.079-0.909 2.946l-0.041 0.068c-0.126 0.213-0.217 0.356-0.31 0.498l0.036-0.058c-1.28 1.988-1.666 3.552-1.141 4.649 0.422 0.885 1.312 1.193 1.777 1.237zM25.035 26.92c-0.986-0.073-2.317-0.142-3.653-0.186l-0.174-0.005c1.306-1.163 2.366-2.572 3.112-4.157l0.033-0.079c0.541 0.553 1.295 0.896 2.129 0.896 0.581 0 1.122-0.166 1.58-0.453l-0.012 0.007c0.691-0.425 1.175-1.096 1.365-1.888 0.055-0.217 0.087-0.467 0.087-0.724 0-0.586-0.165-1.134-0.45-1.599l0.008 0.013c-0.535-0.877-1.486-1.453-2.572-1.453-0.262 0-0.516 0.034-0.758 0.097l0.021-0.005c0.055-0.546 0.090-1.096 0.090-1.658 0-0.002 0-0.004 0-0.006 0-0.582-0.47-1.055-1.052-1.058h-19.462c-0.582 0.003-1.052 0.476-1.052 1.058 0 0.002 0 0.004 0 0.006v-0c0 4.552 1.835 8.574 4.627 11.002-1.395 0.047-2.69 0.113-3.821 0.19-3.938 0.28-5.080 0.544-5.080 1.762s1.144 1.483 5.082 1.762c2.667 0.188 6.212 0.294 9.976 0.294s7.309-0.105 9.978-0.294c3.936-0.279 5.082-0.544 5.082-1.762s-1.144-1.483-5.082-1.762zM25.54 18.825c0.004-0.003 0.008-0.005 0.013-0.006l0-0 0.011-0.006c0.261-0.162 0.577-0.259 0.916-0.259 0.636 0 1.192 0.339 1.499 0.846l0.004 0.008c0.163 0.264 0.26 0.584 0.26 0.927 0 0.639-0.336 1.199-0.841 1.514l-0.008 0.004c-0.26 0.162-0.577 0.258-0.915 0.258-0.635 0-1.191-0.338-1.497-0.843l-0.004-0.008c-0.013-0.022-0.029-0.040-0.047-0.056l-0-0c-0.010-0.009-0.019-0.017-0.028-0.026l-0-0c0.269-0.751 0.482-1.538 0.638-2.353zM6.415 16.789h17.286c-0.414 5.732-4.132 10.231-8.644 10.231-4.51 0-8.228-4.499-8.642-10.229zM17.655 12.649h-0.058c-0.583-0.060-1.072-0.414-1.321-0.909l-0.004-0.010c-0.371-0.777-0.137-1.801 0.719-3.127l0.147-0.235 0.049-0.081c0.659-1.111 0.546-1.515 0.529-1.557 0.002 0 0.038 0.019 0.087 0.030-0.322-0.109-0.55-0.409-0.55-0.761 0-0.443 0.359-0.802 0.802-0.802 0.071 0 0.14 0.009 0.206 0.027l-0.006-0.001c0.449 0.156 0.795 0.503 0.947 0.942l0.003 0.011c0.279 0.768 0.055 1.743-0.683 2.98-0.574 1.073-0.126 2.404-0.12 2.421 0.029 0.080 0.046 0.173 0.046 0.269 0 0.44-0.353 0.797-0.791 0.804h-0.001z"></path>
</symbol>
</defs>
</svg>
